# xmcd CD database file generated by OrangeCD 5.1
#
# Track frame offsets:
#	150
#	11785
#	25492
#	42755
#	54432
#	65977
#	81990
#	98402
#	114002
#	131255
#
# Disc length: 1997 seconds
#
# Revision: 1
# Processed by: cddbd v1.4PL0 Copyright (c) Steve Scherf et al.
# Submitted via: OrangeCD 5.1
#
DISCID=7907cb0a
DTITLE=Billy Yates - If I Could Go Back
DYEAR=2001
DGENRE=Country
TTITLE0=Too Country And Proud Of It
TTITLE1=In The Light Of Day
TTITLE2=A Better Place
TTITLE3=I Think I Like It
TTITLE4=If I Ever Get Her Back
TTITLE5=You'll Never See Me Crawl
TTITLE6=As The Crow Flies
TTITLE7=Daddy Had A Cardiac And Mama's Got A Cadillac
TTITLE8=They Don't Make Us Like They Used To
TTITLE9=If I Could Go Back
EXTD=
EXTT0=
EXTT1=
EXTT2=
EXTT3=
EXTT4=
EXTT5=
EXTT6=
EXTT7=
EXTT8=
EXTT9=
PLAYORDER=
